<svg version="1.0" xmlns="http://www.w3.org/2000/svg" width="346.667" height="346.667" viewBox="0 0 260 260"><path d="M209 1c0 .5.7 1 1.6 1 3.3 0 14.1 6 18.7 10.4 10.5 10.1 15.3 22.2 14.4 36.5-.5 9.2-2.7 16.2-7.4 23.3-1.6 2.3-21 20.7-43.3 40.8-45.9 41.6-42.3 38.1-94.4 94.8-39.7 43.2-43 46.3-52.8 49.4-8.3 2.5-2.2 3.7 8.8 1.7 8.3-1.5 17.1-6 22.9-11.6 2.8-2.7 23.8-25.3 46.7-50.4 41-44.7 42.4-46.1 80.5-80.4 21.3-19.3 40.7-37 43.1-39.5 16.3-16.9 15.6-45.8-1.6-63-3.2-3.2-8.2-7-11.1-8.5C226.8 1.4 209-1.7 209 1z"/><path d="M208.4 40.8c-9 2.7-12.4 4.4-12.4 6.5 0 .6 1.6 2.8 3.6 4.8l3.7 3.8-4.4 1.1c-10.7 2.7-12.4 3.6-12.7 6.2-.2 1.4.4 3.1 1.3 3.8 1.3 1.1 3.4.8 13.3-1.9 6.4-1.8 12.3-3.8 13-4.3 2-1.7 1.4-4.2-1.8-7.3-1.6-1.6-3-3.2-3-3.5 0-.4 3.3-1.7 7.4-2.9 7.8-2.2 10.1-4.6 7.6-7.6-1.7-2.1-5.1-1.8-15.6 1.3zm-73.3 50.1c-4.2 4.2-5.8 9-4.6 13.8.7 3 18.5 21.7 22.7 23.9 8.5 4.4 19.8-2.7 19.8-12.5 0-5.8-.9-7.3-10.9-17.4-9.9-10.2-12.3-11.7-18.6-11.7-3.9 0-5 .5-8.4 3.9zM94.2 132c-6.2 3.8-9.1 12.5-6.1 18.3 1.6 3.2 17.9 19.6 21.1 21.3 1.5.8 4.6 1.4 6.9 1.4 9.4 0 16.9-11.2 12.8-19.3-1.6-3.2-18.9-20.6-22.1-22.3-3.8-2-8.7-1.7-12.6.6zm-71 52.2c-1.6 1.6-1.5 4.3.1 5.6.6.5 15.3 5.8 32.4 11.7 25.8 8.9 31.5 10.5 32.8 9.5 1.7-1.4 2-5.6.6-6.5-2-1.2-61.4-21.5-63-21.5-.9 0-2.2.5-2.9 1.2zM14 198.5c-.7.8-1 2.5-.6 3.8.5 2 4.4 3.6 31.5 13C62 221.2 76.5 226 77.3 226c3.2 0 4.9-4.7 2.4-6.8C78.3 218 18.3 197 16.4 197c-.6 0-1.7.7-2.4 1.5z"/></svg>