<?xml version="1.0" standalone="no"?>
<!DOCTYPE svg PUBLIC "-//W3C//DTD SVG 20010904//EN"
 "http://www.w3.org/TR/2001/REC-SVG-20010904/DTD/svg10.dtd">
<svg version="1.0" xmlns="http://www.w3.org/2000/svg"
 width="260.000000pt" height="260.000000pt" viewBox="0 0 260.000000 260.000000"
 preserveAspectRatio="xMidYMid meet">
<metadata>
Created by potrace 1.11, written by Peter Selinger 2001-2013
</metadata>
<g transform="translate(0.000000,260.000000) scale(0.100000,-0.100000)"
fill="#000000" stroke="none">
<path d="M2090 2590 c0 -5 7 -10 16 -10 33 0 141 -60 187 -104 105 -101 153
-222 144 -365 -5 -92 -27 -162 -74 -233 -16 -23 -210 -207 -433 -408 -459
-416 -423 -381 -944 -948 -397 -432 -430 -463 -528 -494 -83 -25 -22 -37 88
-17 83 15 171 60 229 116 28 27 238 253 467 504 410 447 424 461 805 804 213
193 407 370 431 395 163 169 156 458 -16 630 -32 32 -82 70 -111 85 -83 41
-261 72 -261 45z"/>
<path d="M2084 2192 c-90 -27 -124 -44 -124 -65 0 -6 16 -28 36 -48 l37 -38
-44 -11 c-107 -27 -124 -36 -127 -62 -2 -14 4 -31 13 -38 13 -11 34 -8 133 19
64 18 123 38 130 43 20 17 14 42 -18 73 -16 16 -30 32 -30 35 0 4 33 17 74 29
78 22 101 46 76 76 -17 21 -51 18 -156 -13z"/>
<path d="M1351 1691 c-42 -42 -58 -90 -46 -138 7 -30 185 -217 227 -239 85
-44 198 27 198 125 0 58 -9 73 -109 174 -99 102 -123 117 -186 117 -39 0 -50
-5 -84 -39z"/>
<path d="M942 1280 c-62 -38 -91 -125 -61 -183 16 -32 179 -196 211 -213 15
-8 46 -14 69 -14 94 0 169 112 128 193 -16 32 -189 206 -221 223 -38 20 -87
17 -126 -6z"/>
<path d="M232 758 c-16 -16 -15 -43 1 -56 6 -5 153 -58 324 -117 258 -89 315
-105 328 -95 17 14 20 56 6 65 -20 12 -614 215 -630 215 -9 0 -22 -5 -29 -12z"/>
<path d="M140 615 c-7 -8 -10 -25 -6 -38 5 -20 44 -36 315 -130 171 -59 316
-107 324 -107 32 0 49 47 24 68 -14 12 -614 222 -633 222 -6 0 -17 -7 -24 -15z"/>
</g>
</svg>
